<?xml version="1.0" encoding="UTF-8" standalone="no"?>
<!-- Created with Inkscape (http://www.inkscape.org/) -->

<svg
   xmlns:dc="http://purl.org/dc/elements/1.1/"
   xmlns:cc="http://creativecommons.org/ns#"
   xmlns:rdf="http://www.w3.org/1999/02/22-rdf-syntax-ns#"
   xmlns:svg="http://www.w3.org/2000/svg"
   xmlns="http://www.w3.org/2000/svg"
   xmlns:xlink="http://www.w3.org/1999/xlink"
   xmlns:sodipodi="http://sodipodi.sourceforge.net/DTD/sodipodi-0.dtd"
   xmlns:inkscape="http://www.inkscape.org/namespaces/inkscape"
   width="4.5155554mm"
   height="4.5155554mm"
   viewBox="0 0 15.999999 15.999999"
   id="svg4273"
   version="1.1"
   inkscape:version="0.91 r"
   inkscape:export-filename="/home/hbrandt/devel/AchromaJS/addon/firefox/data/icon-16.png"
   inkscape:export-xdpi="90"
   inkscape:export-ydpi="90"
   sodipodi:docname="achromajs-small.svg">
  <defs
     id="defs4275">
    <clipPath
       id="SVGID_1_">
      <use
         height="100%"
         width="100%"
         y="0"
         x="0"
         style="overflow:visible"
         xlink:href="#SVGID_3_"
         overflow="visible"
         id="use7077" />
    </clipPath>
    <defs
       id="defs7073">
      <path
         d="m 23.839,6.161 c -4.882,-4.882 -12.796,-4.882 -17.678,0 -4.882,4.882 -4.882,12.796 0,17.678 4.882,4.882 12.796,4.882 17.678,0 4.881,-4.882 4.881,-12.796 0,-17.678 z M 8.813,21.187 c -3.417,-3.417 -3.417,-8.957 0,-12.374 3.417,-3.417 8.957,-3.417 12.374,0 3.417,3.417 3.417,8.957 0,12.374 -3.417,3.417 -8.957,3.417 -12.374,0 z"
         id="SVGID_3_"
         inkscape:connector-curvature="0" />
    </defs>
    <clipPath
       id="clipPath4213">
      <use
         id="use4215"
         overflow="visible"
         xlink:href="#SVGID_3_"
         style="overflow:visible"
         x="0"
         y="0"
         width="100%"
         height="100%" />
    </clipPath>
  </defs>
  <sodipodi:namedview
     id="base"
     pagecolor="#ffffff"
     bordercolor="#666666"
     borderopacity="1.0"
     inkscape:pageopacity="0.0"
     inkscape:pageshadow="2"
     inkscape:zoom="16"
     inkscape:cx="5.3865168"
     inkscape:cy="-3.7441835"
     inkscape:document-units="px"
     inkscape:current-layer="layer1"
     showgrid="false"
     fit-margin-top="0"
     fit-margin-left="0"
     fit-margin-right="0"
     fit-margin-bottom="0"
     showguides="false"
     inkscape:guide-bbox="true"
     inkscape:window-width="1920"
     inkscape:window-height="1016"
     inkscape:window-x="0"
     inkscape:window-y="27"
     inkscape:window-maximized="1">
    <sodipodi:guide
       position="11.458918,8.1443549"
       orientation="0,1"
       id="guide5233" />
    <sodipodi:guide
       position="8.0180858,3.5355339"
       orientation="1,0"
       id="guide5235" />
  </sodipodi:namedview>
  <metadata
     id="metadata4278">
    <rdf:RDF>
      <cc:Work
         rdf:about="">
        <dc:format>image/svg+xml</dc:format>
        <dc:type
           rdf:resource="http://purl.org/dc/dcmitype/StillImage" />
        <dc:title></dc:title>
      </cc:Work>
    </rdf:RDF>
  </metadata>
  <g
     inkscape:label="Ebene 1"
     inkscape:groupmode="layer"
     id="layer1"
     transform="translate(-330.72855,-336.77762)">
    <g
       id="g7185"
       transform="matrix(1.6,0,0,1.5715782,314.78045,321.05959)"
       style="fill:#3c3c3c;fill-opacity:1">
      <ellipse
         id="ellipse7187"
         ry="1.396"
         rx="1.4450001"
         cy="14.999"
         cx="15"
         style="fill:#3c3c3c;fill-opacity:1" />
      <path
         id="path7189"
         d="m 15.223,18.494 c 1.873,-0.146 4.421,-2.186 4.777,-3.491 -0.356,-1.313 -2.904,-3.35 -4.777,-3.495 0,0 -0.246,-0.017 -0.446,0 -1.872,0.155 -4.421,2.183 -4.777,3.495 0.356,1.305 2.902,3.367 4.777,3.491 0.202,0.013 0.446,0 0.446,0 z M 15,17.547 c -1.457,0 -2.638,-1.141 -2.638,-2.547 0,-1.406 1.181,-2.547 2.638,-2.547 1.457,0 2.638,1.141 2.638,2.547 0,1.406 -1.181,2.547 -2.638,2.547 z"
         style="fill:#3c3c3c;fill-opacity:1"
         inkscape:connector-curvature="0" />
    </g>
    <g
       style="fill:#6e6e6e;fill-opacity:1"
       transform="matrix(1.5090909,0,0,1.482284,316.59863,322.71151)"
       id="g5237">
      <ellipse
         style="fill:#6e6e6e;fill-opacity:1"
         cx="15"
         cy="14.999"
         rx="1.4450001"
         ry="1.396"
         id="ellipse5239" />
      <path
         inkscape:connector-curvature="0"
         style="fill:#6e6e6e;fill-opacity:1"
         d="m 15.223,18.494 c 1.873,-0.146 4.421,-2.186 4.777,-3.491 -0.356,-1.313 -2.904,-3.35 -4.777,-3.495 0,0 -0.246,-0.017 -0.446,0 -1.872,0.155 -4.421,2.183 -4.777,3.495 0.356,1.305 2.902,3.367 4.777,3.491 0.202,0.013 0.446,0 0.446,0 z M 15,17.547 c -1.457,0 -2.638,-1.141 -2.638,-2.547 0,-1.406 1.181,-2.547 2.638,-2.547 1.457,0 2.638,1.141 2.638,2.547 0,1.406 -1.181,2.547 -2.638,2.547 z"
         id="path5241" />
    </g>
  </g>
</svg>
